<?xml version="1.0" encoding="UTF-8" standalone="no"?>
<svg
   xmlns:dc="http://purl.org/dc/elements/1.1/"
   xmlns:cc="http://creativecommons.org/ns#"
   xmlns:rdf="http://www.w3.org/1999/02/22-rdf-syntax-ns#"
   xmlns:svg="http://www.w3.org/2000/svg"
   xmlns="http://www.w3.org/2000/svg"
   xmlns:xlink="http://www.w3.org/1999/xlink"
   xmlns:sodipodi="http://sodipodi.sourceforge.net/DTD/sodipodi-0.dtd"
   xmlns:inkscape="http://www.inkscape.org/namespaces/inkscape"
   version="1.1"
   inkscape:output_extension="org.inkscape.output.svg.inkscape"
   sodipodi:docname="flare_logo.svg"
   inkscape:export-ydpi="48"
   inkscape:export-xdpi="48"
   inkscape:export-filename="/home/justin/Projects/flare-engine/mods/default/images/logo/icon.png"
   inkscape:version="1.0 (4035a4fb49, 2020-05-01)"
   sodipodi:version="0.32"
   id="svg2"
   height="512"
   width="512">
  <defs
     id="defs4">
    <linearGradient
       id="linearGradient841"
       inkscape:collect="always">
      <stop
         id="stop837"
         offset="0"
         style="stop-color:#984d00;stop-opacity:1" />
      <stop
         id="stop839"
         offset="1"
         style="stop-color:#cc6800;stop-opacity:1" />
    </linearGradient>
    <linearGradient
       id="linearGradient3163">
      <stop
         id="stop3165"
         offset="0"
         style="stop-color:#ffc641;stop-opacity:1;" />
      <stop
         id="stop3167"
         offset="1"
         style="stop-color:#ff7f00;stop-opacity:1;" />
    </linearGradient>
    <inkscape:perspective
       id="perspective10"
       inkscape:persp3d-origin="372.04724 : 350.78739 : 1"
       inkscape:vp_z="744.09448 : 526.18109 : 1"
       inkscape:vp_y="0 : 1000 : 0"
       inkscape:vp_x="0 : 526.18109 : 1"
       sodipodi:type="inkscape:persp3d" />
    <radialGradient
       gradientUnits="userSpaceOnUse"
       gradientTransform="matrix(1.0205265,0,0,1.5879962,-134.70516,193.70975)"
       r="166.96552"
       fy="417.52182"
       fx="381.88892"
       cy="417.52182"
       cx="381.88892"
       id="radialGradient3197"
       xlink:href="#linearGradient3163"
       inkscape:collect="always" />
    <linearGradient
       gradientUnits="userSpaceOnUse"
       y2="1025.47"
       x2="264.221"
       y1="551.576"
       x1="264.221"
       id="linearGradient843"
       xlink:href="#linearGradient841"
       inkscape:collect="always" />
  </defs>
  <sodipodi:namedview
     inkscape:document-rotation="0"
     inkscape:window-maximized="1"
     inkscape:window-y="0"
     inkscape:window-x="0"
     inkscape:window-height="835"
     inkscape:window-width="1600"
     inkscape:snap-global="false"
     showgrid="false"
     inkscape:current-layer="layer1"
     inkscape:document-units="px"
     inkscape:cy="251.844"
     inkscape:cx="166.208"
     inkscape:zoom="0.844497"
     inkscape:pageshadow="2"
     inkscape:pageopacity="0.0"
     objecttolerance="10"
     guidetolerance="10"
     gridtolerance="10000"
     borderopacity="1.0"
     bordercolor="#666666"
     pagecolor="#ffffff"
     id="base">
    <inkscape:grid
       id="grid2385"
       type="xygrid" />
  </sodipodi:namedview>
  <metadata
     id="metadata7">
    <rdf:RDF>
      <cc:Work
         rdf:about="">
        <dc:format>image/svg+xml</dc:format>
        <dc:type
           rdf:resource="http://purl.org/dc/dcmitype/StillImage" />
        <dc:title></dc:title>
      </cc:Work>
    </rdf:RDF>
  </metadata>
  <g
     transform="translate(0,-540.36218)"
     id="layer1"
     inkscape:groupmode="layer"
     inkscape:label="Layer 1">
    <path
       inkscape:connector-curvature="0"
       sodipodi:nodetypes="csszczsczczzcccccccccccccscsccccccc"
       id="path2383"
       d="m 243.88464,563.00351 c 0,0 18.50806,81.75342 13.75477,109.3234 -4.67479,27.11462 -19.54913,61.3599 -45.49155,71.84691 -8.08294,3.26746 -32.95042,-13.30447 -42.00504,-23.63118 -9.05461,-10.32671 -15.2855,-39.32566 -15.2855,-39.32566 0,0 -5.79082,25.29208 -3.12621,49.69283 2.6646,24.40075 13.80668,60.15285 12.95592,78.89528 -0.91996,20.2666 -14.75939,42.4844 -14.75939,42.4844 0,0 -8.49818,-23.66422 -16.84347,-39.45783 -8.34529,-15.79361 -30.40054,-37.10158 -30.40054,-37.10158 0,0 11.44731,26.12679 11.86839,50.54845 0.42108,24.42166 -43.595202,76.06725 1.19301,143.20492 45.27464,67.86685 113.04859,59.95455 113.04859,59.95455 l 16.48789,-6.0625 -63.27265,-31.00003 81.64212,-40 -81.64212,-40 81.64212,-40 81.64212,40 71.08605,-34.84375 -1.97727,-11.28125 -69.10878,-33.875 60.17917,-29.46875 -2.42375,-19.8125 -9.95013,-73.15625 c 0,0 -11.4493,24.35655 -24.13109,32.91098 -8.34625,5.6299 -28.90597,7.64375 -28.90597,7.64375 0,0 -11.25588,-60.03153 -23.10376,-91.26566 -21.15345,-55.7661 -73.07293,-96.22353 -73.07293,-96.22353 z m 101.40846,349.37196 -81.64212,40 74.94492,36.71875 29.59526,-10.875 33.13522,-38.375 z"
       style="fill:url(#radialGradient3197);fill-opacity:1;fill-rule:evenodd;stroke:url(#linearGradient843);stroke-width:16;stroke-linecap:butt;stroke-linejoin:miter;stroke-opacity:1;stroke-miterlimit:8;stroke-dasharray:none" />
  </g>
</svg>
